<?xml version="1.0" encoding="UTF-8" standalone="no"?>
<svg
   width="75.39109pt"
   height="75.391083pt"
   viewBox="0 0 75.391092 75.391083"
   version="1.1"
   id="svg76"
   sodipodi:docname="code4math-favicon.svg"
   xml:space="preserve"
   inkscape:version="1.2.2 (732a01da63, 2022-12-09)"
   xmlns:inkscape="http://www.inkscape.org/namespaces/inkscape"
   xmlns:sodipodi="http://sodipodi.sourceforge.net/DTD/sodipodi-0.dtd"
   xmlns="http://www.w3.org/2000/svg"
   xmlns:svg="http://www.w3.org/2000/svg"><sodipodi:namedview
     id="namedview78"
     pagecolor="#ffffff"
     bordercolor="#000000"
     borderopacity="0.25"
     inkscape:showpageshadow="2"
     inkscape:pageopacity="0.0"
     inkscape:pagecheckerboard="0"
     inkscape:deskcolor="#d1d1d1"
     inkscape:document-units="pt"
     showgrid="false"
     inkscape:zoom="4.3604918"
     inkscape:cx="56.186323"
     inkscape:cy="56.071657"
     inkscape:window-width="1920"
     inkscape:window-height="1001"
     inkscape:window-x="-9"
     inkscape:window-y="-9"
     inkscape:window-maximized="1"
     inkscape:current-layer="svg76" /><defs
     id="defs38" /><g
     fill="#000000"
     fill-opacity="1"
     id="g402"
     transform="translate(-227.88836,-108.79429)"
     style="fill:#276d72;fill-opacity:1"><g
       id="use400"
       style="fill:#276d72;fill-opacity:1"
       transform="translate(241.246,142.015)"><path
         d="m 16.28125,-16.625 c 0,-0.421875 0,-0.828125 -0.421875,-0.828125 -0.03125,0 -0.390625,0 -0.453125,0.453125 -0.0625,0.6875 -0.640625,0.6875 -0.8125,0.6875 -0.859375,0 -1.734375,-0.359375 -2.234375,-0.59375 -1.25,-0.546875 -2.328125,-0.546875 -2.71875,-0.546875 -4.140625,0 -8.71875,2.609375 -8.71875,8.953125 0,6.3125 4.484375,8.96875 8.765625,8.96875 1.3125,0 3.078125,-0.265625 4.890625,-1.359375 1.140625,-0.71875 2.390625,-1.953125 2.390625,-2.3125 0,-0.34375 -0.359375,-0.484375 -0.515625,-0.484375 -0.171875,0 -0.265625,0.0625 -0.515625,0.34375 -1.4375,1.640625 -3.640625,2.625 -5.84375,2.625 -3.84375,0 -4.8125,-3.890625 -4.8125,-7.734375 0,-4.875 1.78125,-8.125 4.4375,-8.125 1.859375,0 4.828125,1.8125 5.671875,4.4375 0.07813,0.21875 0.140625,0.46875 0.46875,0.46875 0.421875,0 0.421875,-0.390625 0.421875,-0.8125 z m -0.875,2.546875 C 15.109375,-14.5 14.796875,-14.8125 14.171875,-15.46875 c 0.125,0.03125 0.328125,0.03125 0.453125,0.03125 0.265625,0 0.59375,-0.04687 0.78125,-0.171875 z m -8.796875,-1.9375 c -0.5625,0.578125 -2.203125,2.703125 -2.203125,7.5625 0,2.453125 0.375,5.875 2.609375,7.65625 -4.0625,-1.3125 -5.234375,-4.65625 -5.234375,-7.671875 0,-4.5625 2.5,-6.765625 4.828125,-7.5625 z m 0,0"
         id="path1926" /></g></g><path
     id="rect1483"
     style="fill:none;stroke:#276d72;stroke-width:1;stroke-linecap:round;stroke-linejoin:round;stroke-dasharray:none"
     d="M 0.5,0.5 H 74.891087 V 74.891084 H 0.5 Z" /><path
     style="fill:#276d72;fill-opacity:1;stroke-width:0.999997;stroke-linecap:round;stroke-linejoin:round;stroke-dasharray:none"
     d="M 0.361491,74.915544 74.793927,0.726356 v 74.189188 z"
     id="path1195"
     sodipodi:nodetypes="cccc" /><path
     d="m 57.072853,51.902364 v -0.32812 q 0,-0.36328 0.14063,-0.51563 0.14062,-0.15234 0.35156,-0.15234 0.22266,0 0.36328,0.15234 0.140633,0.15235 0.140633,0.51563 v 2.22656 q -0.0117,0.36328 -0.152353,0.51563 -0.1289,0.15234 -0.35156,0.15234 -0.19922,0 -0.33984,-0.12891 -0.12891,-0.14062 -0.15235,-0.45703 -0.0703,-0.83203 -1.10156,-1.58203 -1.01953,-0.75 -2.75391,-0.75 -2.1914,0 -3.32812,1.37109 -1.13672,1.3711 -1.13672,3.14063 0,1.91016 1.25391,3.15234 1.2539,1.24219 3.24609,1.24219 1.14844,0 2.33203,-0.42187 1.19531,-0.42188 2.15625,-1.35938 0.246103,-0.23437 0.433603,-0.23437 0.19921,0 0.32812,0.14062 0.14063,0.12891 0.14063,0.32813 0,0.5039 -1.183603,1.27734 -1.91015,1.25391 -4.2539,1.25391 -2.37891,0 -3.91407,-1.51172 -1.52343,-1.52344 -1.52343,-3.85547 0,-2.37891 1.55859,-3.94922 1.57031,-1.57031 3.94922,-1.57031 2.26172,0 3.79687,1.34765 z"
     style="font-size:24px;font-family:'Courier New';-inkscape-font-specification:'Courier New';text-align:center;text-anchor:middle;fill:#ffffff;stroke-width:1.5;stroke-linecap:round;stroke-linejoin:round"
     id="path1963" /></svg>
